<?xml version="1.0" encoding="iso-8859-1"?>
<!-- Generator: Adobe Illustrator 19.0.0, SVG Export Plug-In . SVG Version: 6.00 Build 0)  -->
<svg version="1.1" id="Layer_1" xmlns="http://www.w3.org/2000/svg" xmlns:xlink="http://www.w3.org/1999/xlink" x="0px" y="0px"
	 viewBox="0 0 511.999 511.999" style="enable-background:new 0 0 511.999 511.999;" xml:space="preserve">
<path style="fill:#F89E04;" d="M34.144,284.794c38.437,31.532,91.431,61.54,152.882,84.276
	c61.455,22.74,121.218,34.471,170.91,35.571c0,0,56.775,3.89,61.467-28.605c4.261-29.508-43.464-36.389-63.132-38.32
	c-45.19-3.435-97.063-14.843-150.23-34.519c-53.171-19.676-103.476-40.558-136.5-71.618c-11.114-10.449-38.683-35.587-59.367-20.462
	C-10.344,226.156,1.439,259.837,34.144,284.794z"/>
<g>
	<path style="fill:#E08F03;" d="M402.723,349.293c1.246,3.306,1.705,6.998,1.105,11.166c-4.688,32.495-61.467,28.605-61.467,28.605
		c-49.696-1.101-109.459-12.827-170.91-35.563c-61.451-22.748-114.445-52.756-152.886-84.28c-1.31-1-2.528-2.04-3.769-3.064
		c5.22,6.458,11.682,12.795,19.35,18.636c38.437,31.532,91.431,61.54,152.882,84.276c61.455,22.74,121.218,34.471,170.91,35.571
		c0,0,56.775,3.89,61.467-28.605C421.218,363.466,413.591,355.017,402.723,349.293z"/>
	<path style="fill:#E08F03;" d="M69.542,231.586c-3.398-3.189-8.349-7.748-14.145-12.126l-8.832,18.447
		c-3.781,7.897-0.443,17.37,7.45,21.14c7.893,3.785,17.358,0.439,21.139-7.45l5.156-10.763
		C76.56,237.847,72.94,234.791,69.542,231.586z"/>
	<path style="fill:#E08F03;" d="M111.45,261.663l-7.962,16.621c-3.777,7.905-0.443,17.362,7.45,21.14
		c7.897,3.785,17.358,0.447,21.14-7.45l7.563-15.802C129.816,271.583,120.383,266.766,111.45,261.663z"/>
	<path style="fill:#E08F03;" d="M205.13,324.436l8.832-18.439c-2.64-0.951-5.269-1.81-7.917-2.794
		c-7.377-2.733-14.69-5.486-21.922-8.284l-7.579,15.835c-3.781,7.889-0.443,17.362,7.45,21.131
		C191.888,335.675,201.357,332.325,205.13,324.436z"/>
	<path style="fill:#E08F03;" d="M259.934,347.269c7.893,3.785,17.358,0.447,21.135-7.458l6.055-12.638
		c-10.292-2.274-20.765-4.954-31.359-7.905l-3.285,6.857C248.707,334.026,252.037,343.484,259.934,347.269z"/>
	<path style="fill:#E08F03;" d="M367.619,339.106c-4.281-0.629-8.179-1.08-11.344-1.387c-7.163-0.552-14.54-1.363-22.022-2.306
		l-1.983,4.14c-3.781,7.889-0.447,17.362,7.45,21.14c7.897,3.777,17.362,0.439,21.139-7.466L367.619,339.106z"/>
</g>
<path style="fill:#F89E04;" d="M122.459,185.054c39.997,29.52,94.467,56.775,157.002,76.334
	c62.536,19.567,122.822,28.21,172.51,26.763c0,0,56.904,0.976,59.915-31.713c2.733-29.682-45.266-34.116-65.003-35.035
	c-45.314-1.109-97.692-9.84-151.802-26.779c-54.111-16.919-105.419-35.2-139.995-64.515c-11.634-9.872-40.453-33.572-60.327-17.399
	C75.02,128.767,88.52,161.806,122.459,185.054z"/>
<g>
	<path style="fill:#E08F03;" d="M498.669,233.13c1.818,3.527,2.681,7.607,2.241,12.331c-3.011,32.697-59.911,31.721-59.911,31.721
		c-49.688,1.439-109.975-7.196-172.506-26.763c-62.54-19.563-117.005-46.814-157.006-76.33c-3.906-2.677-7.506-5.494-10.856-8.393
		c5.797,6.797,13.13,13.408,21.833,19.362c39.993,29.516,94.463,56.771,156.998,76.33c62.536,19.567,122.822,28.21,172.51,26.763
		c0,0,56.904,0.976,59.915-31.713C512.871,245.703,507.211,238.278,498.669,233.13z"/>
	<path style="fill:#E08F03;" d="M155.083,130.105c-3.56-3.015-8.728-7.313-14.746-11.384l-7.881,18.866
		c-3.37,8.095,0.447,17.362,8.522,20.74c8.078,3.378,17.362-0.439,20.732-8.526l4.596-11.013
		C162.412,135.995,158.639,133.121,155.083,130.105z"/>
	<path style="fill:#E08F03;" d="M198.475,157.993l-7.095,16.999c-3.37,8.095,0.447,17.37,8.522,20.74
		c8.078,3.37,17.362-0.439,20.732-8.526l6.744-16.165C217.329,166.962,207.662,162.633,198.475,157.993z"/>
	<path style="fill:#E08F03;" d="M295.251,215.881l7.877-18.866c-2.685-0.81-5.353-1.536-8.05-2.395
		c-7.51-2.338-14.952-4.716-22.317-7.139l-6.76,16.197c-3.37,8.07,0.447,17.362,8.526,20.732
		C282.602,227.777,291.885,223.959,295.251,215.881z"/>
	<path style="fill:#E08F03;" d="M351.152,235.879c8.078,3.37,17.362-0.447,20.728-8.526l5.402-12.928
		c-10.396-1.758-20.994-3.882-31.725-6.293l-2.927,7.014C339.256,223.225,343.073,232.509,351.152,235.879z"/>
	<path style="fill:#E08F03;" d="M458.28,222.21c-4.305-0.419-8.228-0.661-11.4-0.81c-7.184-0.173-14.601-0.613-22.115-1.173
		l-1.77,4.229c-3.366,8.087,0.447,17.37,8.526,20.74c8.074,3.378,17.362-0.439,20.728-8.526L458.28,222.21z"/>
</g>
<g>
</g>
<g>
</g>
<g>
</g>
<g>
</g>
<g>
</g>
<g>
</g>
<g>
</g>
<g>
</g>
<g>
</g>
<g>
</g>
<g>
</g>
<g>
</g>
<g>
</g>
<g>
</g>
<g>
</g>
</svg>
